<?xml version="1.0" encoding="UTF-8"?>
<svg version="1.1" xmlns="http://www.w3.org/2000/svg" width="458" height="94">
<path d="M0 0 C4.27070558 -0.08692074 8.54118458 -0.14036515 12.8125 -0.1875 C14.63491211 -0.22520508 14.63491211 -0.22520508 16.49414062 -0.26367188 C18.23920898 -0.27817383 18.23920898 -0.27817383 20.01953125 -0.29296875 C21.09307861 -0.3086792 22.16662598 -0.32438965 23.27270508 -0.34057617 C26 0 26 0 27.75976562 1.22167969 C29.23497525 3.3369212 30.01349659 5.29651262 30.82421875 7.74609375 C31.13037109 8.66583984 31.43652344 9.58558594 31.75195312 10.53320312 C32.21504883 11.97083008 32.21504883 11.97083008 32.6875 13.4375 C33.00783203 14.39205078 33.32816406 15.34660156 33.65820312 16.33007812 C35.01751632 20.4717808 36 23.59433364 36 28 C36.66 28 37.32 28 38 28 C38.08636719 27.45214844 38.17273437 26.90429688 38.26171875 26.33984375 C39.24890778 20.76992398 40.69198623 15.43436254 42.4375 10.0625 C42.64270264 9.4120874 42.84790527 8.7616748 43.05932617 8.09155273 C44.19923318 4.67896448 45.07347898 2.15122027 48 0 C50.72729492 -0.34057617 50.72729492 -0.34057617 53.98046875 -0.29296875 C55.14384766 -0.28330078 56.30722656 -0.27363281 57.50585938 -0.26367188 C58.72080078 -0.23853516 59.93574219 -0.21339844 61.1875 -0.1875 C62.41404297 -0.17396484 63.64058594 -0.16042969 64.90429688 -0.14648438 C67.93663664 -0.11108741 70.96809996 -0.0617076 74 0 C73.67 0.99 73.34 1.98 73 3 C72.90550969 5.14614039 72.8720606 7.29514037 72.87060547 9.44335938 C72.86885315 10.0924678 72.86710083 10.74157623 72.86529541 11.41035461 C72.86089613 13.55484698 72.86380811 15.6992568 72.8671875 17.84375 C72.86651391 19.33443213 72.86554342 20.82511415 72.86428833 22.3157959 C72.86281397 25.43954515 72.86495754 28.56326579 72.86962891 31.68701172 C72.87532604 35.69199653 72.87204564 39.69691432 72.86605644 43.70189667 C72.86244379 46.77993271 72.86359266 49.85795286 72.86618423 52.93598938 C72.86685155 54.41278593 72.86603188 55.88958392 72.86370468 57.36637878 C72.86116664 59.42983833 72.86503502 61.49318918 72.87060547 63.55664062 C72.87140106 64.73117798 72.87219666 65.90571533 72.87301636 67.11584473 C72.87102676 70.07006942 72.87102676 70.07006942 74 73 C66.08 73 58.16 73 50 73 C50.495 71.515 50.495 71.515 51 70 C51.08826965 68.17467414 51.11763203 66.34625311 51.11352539 64.51879883 C51.11344986 63.39786331 51.11337433 62.2769278 51.11329651 61.12202454 C51.10813522 59.91257675 51.10297394 58.70312897 51.09765625 57.45703125 C51.0962413 56.21829758 51.09482635 54.9795639 51.09336853 53.70329285 C51.08871602 50.41368463 51.0797339 47.1241254 51.06866455 43.83453369 C51.05842629 40.47628377 51.05386574 37.11802667 51.04882812 33.75976562 C51.03779145 27.17315788 51.02104767 20.58658295 51 14 C47.42209115 17.37981764 46.09848018 19.8062141 44.6875 24.5625 C44.48656738 25.22999268 44.28563477 25.89748535 44.07861328 26.58520508 C42.68514552 31.32268281 41.45112219 36.09826945 40.23046875 40.8828125 C39.92343018 42.08607178 39.6163916 43.28933105 39.30004883 44.52905273 C38.69035747 46.9403024 38.08970973 49.35385947 37.4987793 51.76977539 C37.2181665 52.8911792 36.93755371 54.01258301 36.6484375 55.16796875 C36.40270996 56.17110107 36.15698242 57.1742334 35.90380859 58.20776367 C34.95844599 61.12837742 33.67581432 63.43824748 32 66 C27.58849233 62.44688618 26.39213505 58.30195867 24.6875 53.10546875 C24.39190186 52.23988846 24.09630371 51.37430817 23.79174805 50.48249817 C22.85001503 47.72113092 21.92383226 44.95490264 21 42.1875 C20.0746243 39.43139538 19.14574789 36.67664354 18.20825195 33.92463684 C17.62643957 32.21530527 17.05164361 30.50356353 16.48510742 28.78910828 C13.86944474 20.15403881 13.86944474 20.15403881 8 14 C7.13231892 29.92676819 10.43396807 41.20330775 18.95361328 54.72241211 C22.02137999 59.71165281 23.4797194 63.14742331 23 69 C21.58984375 71.22265625 21.58984375 71.22265625 19 73 C15.7357909 73.48757306 12.54092354 73.37638702 9.25 73.25 C8.36183594 73.23195313 7.47367188 73.21390625 6.55859375 73.1953125 C4.37129152 73.14827374 2.18620184 73.08257009 0 73 C0.33 72.01 0.66 71.02 1 70 C1.09449031 67.85385961 1.1279394 65.70485963 1.12939453 63.55664062 C1.13114685 62.9075322 1.13289917 62.25842377 1.13470459 61.58964539 C1.13910387 59.44515302 1.13619189 57.3007432 1.1328125 55.15625 C1.13348609 53.66556787 1.13445658 52.17488585 1.13571167 50.6842041 C1.13718603 47.56045485 1.13504246 44.43673421 1.13037109 41.31298828 C1.12467396 37.30800347 1.12795436 33.30308568 1.13394356 29.29810333 C1.13755621 26.22006729 1.13640734 23.14204714 1.13381577 20.06401062 C1.13314845 18.58721407 1.13396812 17.11041608 1.13629532 15.63362122 C1.13883336 13.57016167 1.13496498 11.50681082 1.12939453 9.44335938 C1.12859894 8.26882202 1.12780334 7.09428467 1.12698364 5.88415527 C1.12897324 2.92993058 1.12897324 2.92993058 0 0 Z " fill="#305DE8" transform="translate(5,11)"/>
<path d="M0 0 C2.79464397 1.35531832 3.89287957 2.56870719 6 5 C6.65234375 7.67578125 6.65234375 7.67578125 7 10 C7.77923828 9.29423828 7.77923828 9.29423828 8.57421875 8.57421875 C18.93072079 -0.67197438 18.93072079 -0.67197438 27.62890625 -0.3359375 C31.24456208 0.17633005 32.71002939 1.15488499 35 4 C38.98381032 12.79962035 38.52421682 21.89578168 38.625 31.375 C38.66158388 33.85163241 38.70219261 36.32811058 38.74765015 38.80459595 C38.77472617 40.33703485 38.79614207 41.86958694 38.81118774 43.40219116 C38.85757297 46.52766317 39.00422139 49.01266418 40 52 C32.08 52 24.16 52 16 52 C16.33 51.01 16.66 50.02 17 49 C17.08481773 46.41369776 17.11598229 43.85521944 17.09765625 41.26953125 C17.0962413 40.51911057 17.09482635 39.76868988 17.09336853 38.99552917 C17.0877756 36.6011454 17.07522444 34.20685547 17.0625 31.8125 C17.05748408 30.18815239 17.05292134 28.56380332 17.04882812 26.93945312 C17.03780848 22.95959931 17.02054873 18.97981556 17 15 C15.21858253 14.13641377 15.21858253 14.13641377 13 14 C10.61046163 15.41723761 10.61046163 15.41723761 9 18 C8.43275872 21.33377911 8.43275872 21.33377911 8.57421875 25.06640625 C8.57750687 25.74170883 8.58079498 26.41701141 8.58418274 27.11277771 C8.59989232 29.26334343 8.64393353 31.41233804 8.6875 33.5625 C8.69899524 35.01235711 8.70877925 36.46222886 8.71679688 37.91210938 C8.61516448 45.06093572 8.61516448 45.06093572 10 52 C2.08 52 -5.84 52 -14 52 C-13.67 51.01 -13.34 50.02 -13 49 C-12.91518227 46.41369776 -12.88401771 43.85521944 -12.90234375 41.26953125 C-12.9037587 40.51911057 -12.90517365 39.76868988 -12.90663147 38.99552917 C-12.9122244 36.6011454 -12.92477556 34.20685547 -12.9375 31.8125 C-12.94251592 30.18815239 -12.94707866 28.56380332 -12.95117188 26.93945312 C-12.96219152 22.95959931 -12.97945127 18.97981556 -13 15 C-15.475 14.505 -15.475 14.505 -18 14 C-20.86026812 18.024671 -21.36751417 20.78847284 -21.328125 25.69140625 C-21.32296875 26.96564453 -21.3178125 28.23988281 -21.3125 29.55273438 C-21.3021875 30.21104248 -21.291875 30.86935059 -21.28125 31.54760742 C-21.25003998 33.55992204 -21.2402675 35.57145138 -21.234375 37.58398438 C-21.20770353 44.85907558 -21.20770353 44.85907558 -20 52 C-27.92 52 -35.84 52 -44 52 C-43.67 51.34 -43.34 50.68 -43 50 C-42.9052439 48.49911432 -42.87205666 46.99410752 -42.87060547 45.49023438 C-42.86745331 44.55586548 -42.86430115 43.62149658 -42.86105347 42.65881348 C-42.8630777 41.64734253 -42.86510193 40.63587158 -42.8671875 39.59375 C-42.86623077 38.55810913 -42.86527405 37.52246826 -42.86428833 36.45544434 C-42.86360702 34.2631016 -42.86545791 32.07075685 -42.86962891 29.87841797 C-42.87497782 26.5139515 -42.86968225 23.14961854 -42.86328125 19.78515625 C-42.86394204 17.65885387 -42.86522322 15.53255157 -42.8671875 13.40625 C-42.86516327 12.39477905 -42.86313904 11.38330811 -42.86105347 10.34118652 C-42.86420563 9.40681763 -42.86735779 8.47244873 -42.87060547 7.50976562 C-42.87140106 6.68528931 -42.87219666 5.86081299 -42.87301636 5.01135254 C-42.87326586 2.92849419 -42.87326586 2.92849419 -44 1 C-40.70849875 0.91314713 -37.4172904 0.85966105 -34.125 0.8125 C-33.18785156 0.78736328 -32.25070313 0.76222656 -31.28515625 0.73632812 C-29.94130859 0.72182617 -29.94130859 0.72182617 -28.5703125 0.70703125 C-27.74289551 0.6913208 -26.91547852 0.67561035 -26.06298828 0.65942383 C-25.38220215 0.77181396 -24.70141602 0.8842041 -24 1 C-22.0549 3.91765 -21.54723683 5.62537285 -21 9 C-20.54109375 8.51789062 -20.0821875 8.03578125 -19.609375 7.5390625 C-18.99578125 6.90742187 -18.3821875 6.27578125 -17.75 5.625 C-17.14671875 4.99851562 -16.5434375 4.37203125 -15.921875 3.7265625 C-11.16526369 -0.54665335 -6.18654727 -0.95477422 0 0 Z " fill="#2F5CE8" transform="translate(266,32)"/>
<path d="M0 0 C3.73139984 2.02117491 4.72525685 3.31968363 6.3125 7.25 C6.539375 8.1575 6.76625 9.065 7 10 C7.721875 9.2575 8.44375 8.515 9.1875 7.75 C13.99294273 3.05134489 17.48864204 -0.10898243 24.375 -0.25 C28.40680288 -0.18454865 30.88327308 0.24994684 34 3 C38.07241634 9.3995114 38.13287864 16.40538359 38.28125 23.796875 C38.31900928 25.26432295 38.35676973 26.73177086 38.39453125 28.19921875 C38.44830447 30.48581392 38.50050773 32.77243997 38.55224609 35.05908203 C38.60399511 37.28428991 38.66118841 39.50931111 38.71875 41.734375 C38.73232544 42.41876648 38.74590088 43.10315796 38.7598877 43.80828857 C38.83819865 46.79627603 39.04729391 49.14188174 40 52 C32.08 52 24.16 52 16 52 C16.33 51.01 16.66 50.02 17 49 C17.08494728 46.34105893 17.11594796 43.70914623 17.09765625 41.05078125 C17.0962413 40.27816452 17.09482635 39.50554779 17.09336853 38.70951843 C17.08777466 36.24380611 17.07522333 33.77818485 17.0625 31.3125 C17.05748421 29.63997527 17.05292144 27.96744912 17.04882812 26.29492188 C17.03780724 22.19657954 17.02054684 18.09830521 17 14 C14.6568787 14.25561323 12.32156597 14.59270772 10 15 C8.50108644 17.99782711 8.87006078 20.75006789 8.8671875 24.08984375 C8.86623077 24.79017227 8.86527405 25.49050079 8.86428833 26.21205139 C8.86360754 27.6940215 8.86545481 29.1759946 8.86962891 30.65795898 C8.87497063 32.92503581 8.86968471 35.19191379 8.86328125 37.45898438 C8.86394221 38.89843794 8.86522373 40.33789138 8.8671875 41.77734375 C8.86887939 43.74562134 8.86887939 43.74562134 8.87060547 45.75366211 C8.84975778 49.01292945 8.84975778 49.01292945 10 52 C2.08 52 -5.84 52 -14 52 C-13.67 51.01 -13.34 50.02 -13 49 C-12.9034754 46.50984755 -12.85998789 44.04856785 -12.8671875 41.55859375 C-12.86623077 40.83511246 -12.86527405 40.11163116 -12.86428833 39.3662262 C-12.86360858 37.83895785 -12.86544859 36.3116866 -12.86962891 34.78442383 C-12.87498786 32.44280542 -12.86967305 30.10137813 -12.86328125 27.75976562 C-12.86394192 26.27604124 -12.86522284 24.79231698 -12.8671875 23.30859375 C-12.86516327 22.60649277 -12.86313904 21.90439178 -12.86105347 21.18101501 C-12.82674774 17.466146 -12.82674774 17.466146 -14 14 C-15.98 14 -17.96 14 -20 14 C-21.16717778 17.69915382 -21.12935299 21.20584 -21.1328125 25.06640625 C-21.13376923 25.74170883 -21.13472595 26.41701141 -21.13571167 27.11277771 C-21.13639023 28.53571669 -21.13455856 29.95865882 -21.13037109 31.3815918 C-21.12500985 33.5585016 -21.13033127 35.73520588 -21.13671875 37.91210938 C-21.13605807 39.29687545 -21.13477713 40.68164141 -21.1328125 42.06640625 C-21.13168457 43.32396729 -21.13055664 44.58152832 -21.12939453 45.87719727 C-21.14290774 49.03241227 -21.14290774 49.03241227 -20 52 C-27.92 52 -35.84 52 -44 52 C-43.67 51.01 -43.34 50.02 -43 49 C-42.90874711 47.52758496 -42.87210308 46.05141114 -42.87060547 44.57617188 C-42.86745331 43.68514771 -42.86430115 42.79412354 -42.86105347 41.87609863 C-42.8630777 40.91667358 -42.86510193 39.95724854 -42.8671875 38.96875 C-42.86623077 37.98128784 -42.86527405 36.99382568 -42.86428833 35.97644043 C-42.86360775 33.88842709 -42.86545353 31.80041162 -42.86962891 29.71240234 C-42.87497885 26.51264706 -42.86967977 23.31303215 -42.86328125 20.11328125 C-42.86394205 18.08593719 -42.86522326 16.05859322 -42.8671875 14.03125 C-42.86516327 13.07182495 -42.86313904 12.1123999 -42.86105347 11.12390137 C-42.86420563 10.2328772 -42.86735779 9.34185303 -42.87060547 8.42382812 C-42.87140106 7.64011841 -42.87219666 6.85640869 -42.87301636 6.0489502 C-42.92440479 3.79855202 -42.92440479 3.79855202 -44 1 C-37.4 1 -30.8 1 -24 1 C-23.01 3.64 -22.02 6.28 -21 9 C-20.29875 8.071875 -19.5975 7.14375 -18.875 6.1875 C-13.72520304 0.11963338 -7.69226295 -1.14292388 0 0 Z " fill="#2F5CE8" transform="translate(180,32)"/>
<path d="M0 0 C1.88631543 1.88631543 1.24265292 5.14200693 1.31640625 7.66015625 C1.33718735 8.32462265 1.35796844 8.98908905 1.37937927 9.6736908 C1.44493658 11.80318543 1.50378785 13.93280668 1.5625 16.0625 C1.60567939 17.50326847 1.64929349 18.94402399 1.69335938 20.38476562 C1.80062393 23.9230404 1.90187371 27.46145869 2 31 C2.45890625 30.51789062 2.9178125 30.03578125 3.390625 29.5390625 C4.00421875 28.90742187 4.6178125 28.27578125 5.25 27.625 C5.85328125 26.99851562 6.4565625 26.37203125 7.078125 25.7265625 C11.27798639 21.95351629 15.02353322 21.49520875 20.5234375 21.625 C24.74697386 22.26452601 26.22914191 23.74424174 29 27 C30.91252753 32.30510979 31.31765586 37.11190841 31.37890625 42.671875 C31.39590073 43.47610901 31.4128952 44.28034302 31.43040466 45.10894775 C31.48314232 47.65588725 31.52367241 50.20281357 31.5625 52.75 C31.60651262 55.31139042 31.65321649 57.87265972 31.70530701 60.43389893 C31.73712739 62.02198078 31.76405941 63.6101699 31.78553772 65.19842529 C31.84533793 68.38107304 31.9865041 70.95951229 33 74 C25.08 74 17.16 74 9 74 C9.495 72.515 9.495 72.515 10 71 C10.08481773 68.41369776 10.11598229 65.85521944 10.09765625 63.26953125 C10.0962413 62.51911057 10.09482635 61.76868988 10.09336853 60.99552917 C10.0877756 58.6011454 10.07522444 56.20685547 10.0625 53.8125 C10.05748408 52.18815239 10.05292134 50.56380332 10.04882812 48.93945312 C10.03780848 44.95959931 10.02054873 40.97981556 10 37 C8.35 36.67 6.7 36.34 5 36 C2.13973188 40.024671 1.63248583 42.78847284 1.671875 47.69140625 C1.67703125 48.96564453 1.6821875 50.23988281 1.6875 51.55273438 C1.6978125 52.21104248 1.708125 52.86935059 1.71875 53.54760742 C1.74996002 55.55992204 1.7597325 57.57145138 1.765625 59.58398438 C1.79229647 66.85907558 1.79229647 66.85907558 3 74 C-4.92 74 -12.84 74 -21 74 C-20.505 73.01 -20.505 73.01 -20 72 C-19.89344678 70.07584847 -19.85116242 68.1480076 -19.83886719 66.22094727 C-19.82445587 64.40379967 -19.82445587 64.40379967 -19.80975342 62.54994202 C-19.80550354 61.23537521 -19.80125366 59.92080841 -19.796875 58.56640625 C-19.79112377 57.2088165 -19.78536603 55.85122678 -19.77960205 54.49363708 C-19.76909386 51.64638897 -19.76324981 48.79916908 -19.75976562 45.9519043 C-19.7542769 42.30210877 -19.7302406 38.65268558 -19.70179367 35.00300694 C-19.68317886 32.19861253 -19.67796236 29.39430808 -19.67642975 26.5898571 C-19.67192705 24.58952905 -19.65327631 22.58924914 -19.63446045 20.58900452 C-19.63746155 19.37442062 -19.64046265 18.15983673 -19.64355469 16.90844727 C-19.63808624 15.30200096 -19.63808624 15.30200096 -19.63250732 13.6631012 C-20.04376735 10.68283207 -20.65039712 9.7978669 -23 8 C-20.56343315 6.85214624 -18.12580719 5.70664598 -15.6875 4.5625 C-14.99720703 4.23701172 -14.30691406 3.91152344 -13.59570312 3.57617188 C-8.87394743 1.36356172 -5.25350906 -0.27650048 0 0 Z " fill="#305CE8" transform="translate(416,10)"/>
<path d="M0 0 C4.26107387 3.43847274 7.29284308 7.44102925 9.0234375 12.6328125 C9.15149619 14.8454722 9.2254532 17.06141977 9.26953125 19.27734375 C9.30240234 20.59412109 9.33527344 21.91089844 9.36914062 23.26757812 C9.41642468 25.35420129 9.46085232 27.44080027 9.50024414 29.52758789 C9.54023844 31.54861712 9.59172105 33.56911425 9.64453125 35.58984375 C9.6695874 36.79616455 9.69464355 38.00248535 9.72045898 39.24536133 C10.02588238 42.66014744 10.80558928 45.43972959 12.0234375 48.6328125 C8.77391002 48.77828033 5.52522037 48.8669293 2.2734375 48.9453125 C1.35304687 48.98720703 0.43265625 49.02910156 -0.515625 49.07226562 C-7.38555161 49.19672082 -7.38555161 49.19672082 -10.6171875 46.11328125 C-11.06578125 45.29472656 -11.514375 44.47617188 -11.9765625 43.6328125 C-12.59402344 44.0659375 -13.21148437 44.4990625 -13.84765625 44.9453125 C-18.8493342 48.23408704 -22.77659761 50.54730457 -28.8671875 50.09375 C-33.01928605 49.18643958 -36.76741978 47.50920789 -39.14453125 43.8203125 C-40.99382105 38.95832993 -40.74037556 33.30844507 -39.32421875 28.34765625 C-35.41940585 19.64981122 -28.4970655 16.08373352 -19.94140625 12.7109375 C-16.96945494 11.63022793 -13.98227852 10.61536454 -10.9765625 9.6328125 C-11.16120616 5.29097048 -11.16120616 5.29097048 -12.9765625 1.6328125 C-16.33431585 1.16272703 -18.87454772 0.9706872 -21.85546875 2.76171875 C-24.86353366 5.25003162 -26.95175866 7.59487722 -29.1015625 10.8828125 C-31.17963687 13.93065491 -32.4816368 14.66199981 -35.9765625 15.6328125 C-37.78163189 13.82774311 -37.39888803 11.32840958 -37.5390625 8.8828125 C-37.51896904 3.24994488 -37.51896904 3.24994488 -35.33203125 0.76171875 C-25.51514125 -5.37611414 -9.99299879 -5.96851464 0 0 Z M-19.61328125 19.15234375 C-22.6702761 22.47211753 -23.08542049 26.36181047 -23.2890625 30.6953125 C-22.96835264 34.7362568 -22.69215075 36.64566543 -19.9765625 39.6328125 C-16.8808518 40.52488429 -16.8808518 40.52488429 -13.9765625 40.6328125 C-10.91368179 37.6486224 -9.69676882 35.47862495 -9.515625 31.27734375 C-9.52354103 29.6664314 -9.55272988 28.05550399 -9.6015625 26.4453125 C-9.60285156 25.62611328 -9.60414062 24.80691406 -9.60546875 23.96289062 C-9.49104318 19.31580146 -9.49104318 19.31580146 -11.9765625 15.6328125 C-15.58630084 15.6328125 -16.96431325 16.80573935 -19.61328125 19.15234375 Z " fill="#2E5BE8" transform="translate(121.9765625,35.3671875)"/>
<path d="M0 0 C6.26140981 4.1742732 9.63368106 9.90104319 12 17 C12.92178181 26.0818175 10.97560953 32.96435311 6.375 40.75 C-0.70014243 47.45276651 -8.15890808 50.45233807 -17.796875 50.3359375 C-24.78762603 49.60276117 -30.10039285 46.30139921 -34.9375 41.3125 C-39.50684428 35.55491016 -41.36745949 29.32622361 -41 22 C-39.72152729 13.42750405 -35.80962049 6.75446856 -29.0234375 1.40625 C-20.43229152 -4.56443061 -9.22087857 -5.11810563 0 0 Z M-20.671875 2.26171875 C-25.14653684 8.11826145 -24.18179635 16.4537229 -23.5390625 23.359375 C-22.31372544 31.63483979 -20.59105127 40.37349282 -14 46 C-11.41078227 46.91765886 -11.41078227 46.91765886 -9 46 C-4.23753219 40.04691523 -4.37357847 32.27678704 -5 25 C-5.47204341 22.19962498 -6.08298049 19.44741636 -6.75 16.6875 C-6.90686279 16.01807373 -7.06372559 15.34864746 -7.2253418 14.65893555 C-8.6470918 9.1853685 -11.00579559 4.99420441 -15 1 C-18.81695272 0.59841034 -18.81695272 0.59841034 -20.671875 2.26171875 Z " fill="#305CE8" transform="translate(349,35)"/>
<path d="M0 0 C0 4.95 0 9.9 0 15 C2.31 15 4.62 15 7 15 C6.67 16.32 6.34 17.64 6 19 C4.02 19 2.04 19 0 19 C0.09375283 24.17812895 0.1998951 29.35580236 0.31738281 34.53344727 C0.35559841 36.29379371 0.39046413 38.05421626 0.421875 39.81469727 C0.46768714 42.34939725 0.52565417 44.88357664 0.5859375 47.41796875 C0.59748871 48.20149216 0.60903992 48.98501556 0.62094116 49.7922821 C0.73265179 53.9548761 1.14507996 57.25590591 3 61 C3.37125 61.763125 3.7425 62.52625 4.125 63.3125 C4.41375 63.869375 4.7025 64.42625 5 65 C0.66702266 67.45077904 -3.11065929 67.69605198 -8 67 C-13.11762818 64.34641502 -16.17705942 61.46882174 -18 56 C-18.1539263 53.19839498 -18.25738045 50.41701575 -18.31640625 47.61328125 C-18.33718735 46.79627243 -18.35796844 45.97926361 -18.37937927 45.13749695 C-18.44473079 42.52924966 -18.50369273 39.92090225 -18.5625 37.3125 C-18.60569892 35.54360946 -18.64931365 33.77472903 -18.69335938 32.00585938 C-18.80039743 27.67067537 -18.90170544 23.33539071 -19 19 C-20.65 19 -22.3 19 -24 19 C-24 17.68 -24 16.36 -24 15 C-23.48953125 14.75507812 -22.9790625 14.51015625 -22.453125 14.2578125 C-16.65391609 11.27594976 -11.91281922 7.62416272 -7.07519531 3.30322266 C-3.30614957 0 -3.30614957 0 0 0 Z " fill="#2D5BE8" transform="translate(387,18)"/>
</svg>
